<svg version="1.1" viewBox="0.0 0.0 351.3989501312336 276.2703412073491" fill="none" stroke="none" stroke-linecap="square" stroke-miterlimit="10" xmlns:xlink="http://www.w3.org/1999/xlink" xmlns="http://www.w3.org/2000/svg"><clipPath id="p.0"><path d="m0 0l351.39896 0l0 276.27036l-351.39896 0l0 -276.27036z" clip-rule="nonzero"/></clipPath><g clip-path="url(#p.0)"><path fill="#000000" fill-opacity="0.0" d="m0 0l351.39896 0l0 276.27036l-351.39896 0z" fill-rule="evenodd"/><path fill="#000000" fill-opacity="0.0" d="m145.43594 360.1685l-266.74014 -177.92126l573.16534 -281.48032z" fill-rule="evenodd"/><path fill="#000000" fill-opacity="0.0" d="m12.065871 271.20786l286.5827 -140.72441" fill-rule="evenodd"/><path stroke="#000000" stroke-width="2.0" stroke-linejoin="round" stroke-linecap="butt" d="m12.065872 271.20786l275.81122 -135.43517" fill-rule="evenodd"/><path fill="#000000" stroke="#000000" stroke-width="2.0" stroke-linecap="butt" d="m289.33316 138.73795l6.690918 -6.9657745l-9.603058 1.0352631z" fill-rule="evenodd"/><path fill="#000000" fill-opacity="0.0" d="m12.065871 271.20786l153.22835 -229.70078" fill-rule="evenodd"/><path stroke="#0000ff" stroke-width="2.0" stroke-linejoin="round" stroke-linecap="butt" d="m12.065872 271.20786l146.5691 -219.71808" fill-rule="evenodd"/><path fill="#0000ff" stroke="#0000ff" stroke-width="2.0" stroke-linecap="butt" d="m161.3831 53.322994l2.2885895 -9.383633l-7.784851 5.717201z" fill-rule="evenodd"/><path fill="#000000" fill-opacity="0.0" d="m165.27847 41.507072l133.38583 88.97637" fill-rule="evenodd"/><path stroke="#ff0000" stroke-width="2.0" stroke-linejoin="round" stroke-linecap="butt" stroke-dasharray="8.0,6.0" d="m165.27847 41.507072l123.403015 82.31726" fill-rule="evenodd"/><path fill="#ff0000" stroke="#ff0000" stroke-width="2.0" stroke-linecap="butt" d="m286.84833 126.57248l9.383636 2.2884827l-5.717285 -7.7847824z" fill-rule="evenodd"/><path fill="#000000" fill-opacity="0.0" d="m92.158295 196.49966l111.055115 -54.393707l18.48819 37.732285l-111.055115 54.393707z" fill-rule="evenodd"/><path fill="#000000" d="m124.343285 195.69641l0.9075012 1.8521271l-3.648384 1.7869415l5.0256577 10.25679l-2.2591934 1.1065369l-5.0256577 -10.256805l-3.6624222 1.7938232l-0.90750885 -1.8521118l9.570007 -4.6873016zm5.903084 12.123657l-4.2144012 -8.60112l1.2067719 -0.59106445q0.32274628 -0.15808105 0.51091003 -0.09365845q0.18128967 0.05039978 0.36088562 0.3103943l0.641922 0.9904938q0.07118225 -1.0265808 0.46173096 -1.7920227q0.39053345 -0.76542664 1.1623077 -1.1434479q0.63145447 -0.30926514 1.1968079 -0.22080994l0.48963928 1.6740265q0.047561646 0.16809082 -0.0022583008 0.27947998q-0.05670166 0.09736633 -0.19702148 0.16609192q-0.12628174 0.06185913 -0.3782959 0.11569214q-0.23799133 0.046966553 -0.5887909 0.21879578q-0.64549255 0.31614685 -0.9298096 0.9077606q-0.29118347 0.57759094 -0.27705383 1.4231873l2.6194 5.345886l-2.0627441 1.010315zm4.52417 -12.881195l2.6812744 5.472168q0.38500977 0.78575134 0.9629669 1.0420227q0.5710907 0.24223328 1.300766 -0.11515808q0.53323364 -0.26116943 0.87942505 -0.72650146q0.36021423 -0.4721985 0.5749359 -1.0993195l-3.0456543 -6.2158203l2.0627441 -1.010315l4.2144012 8.60112l-1.2628937 0.6185608q-0.40693665 0.1993103 -0.7188568 -0.11767578l-0.47720337 -0.61880493q-0.13598633 0.39718628 -0.32066345 0.76600647q-0.17063904 0.36195374 -0.41775513 0.67437744q-0.24711609 0.3124237 -0.5847473 0.5821686q-0.31671143 0.2769165 -0.7376709 0.48310852q-0.7016144 0.3436432 -1.3657532 0.3731537q-0.6501007 0.022644043 -1.242096 -0.22676086q-0.58483887 -0.27030945 -1.0700531 -0.7633972q-0.4780426 -0.5139923 -0.8286743 -1.2295837l-2.6812592 -5.472168l2.076767 -1.0171814zm11.118881 -5.6025085q0.8138733 -0.3986206 1.618042 -0.46192932q0.81134033 -0.084198 1.5499725 0.18037415q0.7457886 0.2436676 1.3699036 0.84269714q0.63127136 0.57814026 1.0918884 1.5182343q0.11001587 0.2244873 0.15756226 0.39257812q0.06159973 0.16122437 0.053604126 0.28692627q-0.014892578 0.11167908 -0.09248352 0.20188904q-0.07044983 0.06929016 -0.21076965 0.138031l-5.318222 2.6048126q0.75135803 1.2848511 1.6712646 1.599823q0.9199219 0.31495667 1.9442902 -0.18676758q0.5051575 -0.24742126 0.8149872 -0.5383606q0.30296326 -0.30497742 0.50083923 -0.5758667q0.21188354 -0.277771 0.35333252 -0.48623657q0.1486206 -0.22938538 0.34506226 -0.3256073q0.126297 -0.061843872 0.23799133 -0.046966553q0.11885071 -0.006011963 0.23713684 0.05784607l0.9746399 0.46214294q-0.15830994 0.56469727 -0.45581055 1.0583801q-0.29034424 0.47277832 -0.67089844 0.8679657q-0.3874359 0.3811493 -0.8441925 0.69184875q-0.4427185 0.303833 -0.89175415 0.52375793q-0.8980713 0.4398651 -1.8142242 0.5232239q-0.9161377 0.083343506 -1.773346 -0.21014404q-0.8500366 -0.3143921 -1.5921631 -1.0122223q-0.7489929 -0.711853 -1.298996 -1.8343506q-0.433136 -0.8839569 -0.53060913 -1.7931366q-0.10435486 -0.9232025 0.15386963 -1.7456207q0.25134277 -0.83644104 0.8440857 -1.5443268q0.60676575 -0.71476746 1.574997 -1.1889954zm0.77085876 1.4666901q-0.9121094 0.44674683 -1.1697693 1.1992798q-0.2576599 0.7525482 0.048614502 1.7682495l3.8869476 -1.9037933q-0.19250488 -0.39286804 -0.4766388 -0.68865967q-0.27697754 -0.31671143 -0.63212585 -0.47332764q-0.35513306 -0.15663147 -0.78157043 -0.13916016q-0.4123993 0.010604858 -0.87545776 0.2374115z" fill-rule="nonzero"/><path fill="#000000" d="m160.75488 178.17554l0.3506317 0.71559143l-6.2443542 3.058426l2.4406433 4.981079l5.40242 -2.6460571l0.3506317 0.71559143l-5.40242 2.6460571l2.667511 5.444092l-0.8699951 0.42611694l-5.8094177 -11.856354l7.1143494 -3.4845428zm6.2758636 1.1192017q0.89805603 -0.4398651 1.7509308 -0.474823q0.8668976 -0.0418396 1.618988 0.28573608q0.76612854 0.32069397 1.4105988 0.99676514q0.63757324 0.6620331 1.1188354 1.6442261q0.48124695 0.98217773 0.613678 1.8916321q0.13241577 0.90945435 -0.08370972 1.7112579q-0.20210266 0.7949219 -0.76649475 1.4541321q-0.5572357 0.6382904 -1.4552917 1.0781555q-0.8980713 0.4398651 -1.7580872 0.49572754q-0.85287476 0.034957886 -1.6190033 -0.28573608q-0.76612854 -0.32070923 -1.403717 -0.9827423q-0.63757324 -0.6620331 -1.1188354 -1.6442108q-0.48124695 -0.982193 -0.613678 -1.8916473q-0.13929749 -0.92349243 0.07684326 -1.7252808q0.21612549 -0.8018036 0.7664795 -1.4541321q0.5643921 -0.65919495 1.4624634 -1.09906zm3.8981476 7.955673q0.7437134 -0.3642578 1.1812592 -0.89172363q0.43753052 -0.5274811 0.5686188 -1.1832428q0.14512634 -0.6626282 -0.002456665 -1.4254608q-0.15446472 -0.776886 -0.5600891 -1.6047211q-0.4056244 -0.8278351 -0.91804504 -1.4119873q-0.51930237 -0.5981903 -1.1319275 -0.88967896q-0.60546875 -0.3123932 -1.2905121 -0.29003906q-0.6919098 0.00831604 -1.4356232 0.37257385q-0.7437134 0.36427307 -1.1743774 0.905777q-0.43753052 0.5274658 -0.57577515 1.2041321q-0.13108826 0.6557617 0.009338379 1.4394989q0.14758301 0.7628479 0.5532074 1.590683q0.4056244 0.82785034 0.92492676 1.4260254q0.52645874 0.57728577 1.1250458 0.87564087q0.6126251 0.2915039 1.2976685 0.26914978q0.68504333 -0.022354126 1.4287415 -0.3866272zm6.147293 -2.3671265l-4.083786 -8.334534l0.42097473 -0.20617676q0.14031982 -0.068725586 0.22393799 -0.040100098q0.09767151 0.021759033 0.16641235 0.16207886l0.9364319 1.7335663q-0.08807373 -1.2095642 0.28956604 -2.1078644q0.3916626 -0.9051819 1.3739319 -1.3862762q0.37886047 -0.1855774 0.7288208 -0.252594q0.3571167 -0.087905884 0.72743225 -0.07789612l0.15586853 0.60220337q0.04067993 0.15405273 -0.09963989 0.22277832q-0.056137085 0.027496338 -0.16810608 0.047546387q-0.10481262 -8.69751E-4 -0.26576233 0.025772095q-0.1609497 0.026641846 -0.3711548 0.0947876q-0.21707153 0.054138184 -0.48368835 0.1847229q-0.9401703 0.46047974 -1.2688293 1.3521881q-0.31463623 0.8848419 -0.15037537 2.1788788l2.6537628 5.416031l-0.7857971 0.3848877zm8.597504 -13.171219q-0.021469116 0.06271362 -0.042938232 0.12542725q-0.02835083 0.048675537 -0.084472656 0.076171875q-0.084198 0.041229248 -0.29354858 0.0045928955q-0.20219421 -0.057556152 -0.5166626 -0.06011963q-0.30729675 -0.023483276 -0.7271271 0.04296875q-0.41984558 0.06643677 -0.93904114 0.32073975q-0.7156372 0.35050964 -1.1463013 0.89201355q-0.43754578 0.5274811 -0.58265686 1.1901093q-0.14512634 0.6626282 -0.025604248 1.4392242q0.13354492 0.76971436 0.55293274 1.6256104q0.426239 0.8699341 0.9736023 1.4543762q0.5404968 0.57040405 1.1322021 0.8547363q0.60575867 0.27746582 1.2627258 0.26885986q0.6641388 -0.029510498 1.3096161 -0.3456726q0.60339355 -0.29553223 0.9415741 -0.6351471q0.3381958 -0.33963013 0.5222931 -0.6385956q0.18411255 -0.2989502 0.2697296 -0.51486206q0.08560181 -0.21591187 0.18382263 -0.26402283q0.098220825 -0.048110962 0.20275879 -0.012329102l0.34799194 0.17753601q-0.079574585 0.3347473 -0.2642517 0.70358276q-0.17063904 0.36195374 -0.4738922 0.7018585q-0.2892151 0.33303833 -0.68296814 0.6302948q-0.38687134 0.3112793 -0.8499298 0.5380707q-0.79985046 0.39175415 -1.5968628 0.43415833q-0.78985596 0.021499634 -1.53508 -0.29203796q-0.7521057 -0.32757568 -1.403717 -0.9827423q-0.64445496 -0.6760559 -1.1394653 -1.6863098q-0.46749878 -0.9541168 -0.61395264 -1.8567047q-0.13929749 -0.92349243 0.06278992 -1.7184143q0.20925903 -0.8158264 0.7596283 -1.4681549q0.5434723 -0.6663666 1.4415436 -1.1062317q0.8138733 -0.3986206 1.575943 -0.44129944q0.75520325 -0.05671692 1.452301 0.15859985l-0.07298279 0.38371277zm4.6680603 -3.8348236q0.7015991 -0.3436432 1.4147186 -0.37974548q0.7202606 -0.057006836 1.3821411 0.19296265q0.6759033 0.24310303 1.2513275 0.81378174q0.58258057 0.5497894 1.0157166 1.4337616q0.08937073 0.18240356 0.067611694 0.28004456q-0.028625488 0.083618164 -0.1408844 0.13861084l-6.0198364 2.9484558l0.08250427 0.16836548q0.46061707 0.940094 1.0217285 1.552597q0.5682678 0.59158325 1.2017975 0.89024353q0.6407013 0.27774048 1.3188629 0.24136353q0.6921997 -0.043258667 1.3938141 -0.38690186q0.63145447 -0.3092804 1.0326385 -0.6623688q0.39431763 -0.3671112 0.6205139 -0.6866913q0.23336792 -0.34048462 0.35391235 -0.55610657q0.11367798 -0.22966003 0.19786072 -0.27090454q0.11225891 -0.054977417 0.20277405 -0.012313843l0.34797668 0.17753601q-0.079574585 0.3347473 -0.3063507 0.7241974q-0.21273804 0.38256836 -0.5440521 0.7362213q-0.33129883 0.3536682 -0.7531128 0.6646576q-0.4149475 0.3250122 -0.89204407 0.55870056q-0.8559723 0.41923523 -1.7019501 0.4682312q-0.85287476 0.034957886 -1.6330261 -0.27886963q-0.78704834 -0.32785034 -1.4524078 -1.0110779q-0.6722412 -0.6972656 -1.1947479 -1.7636261q-0.44000244 -0.897995 -0.55867004 -1.7793884q-0.11868286 -0.8814087 0.090286255 -1.6622925q0.2230072 -0.7877655 0.7593384 -1.4332275q0.54348755 -0.6663666 1.4415588 -1.1062164zm0.29562378 0.6033325q-0.64549255 0.31614685 -1.0684357 0.7668915q-0.40890503 0.44384766 -0.6021576 1.0082703q-0.17919922 0.55752563 -0.15649414 1.20755q0.029846191 0.6291199 0.28282166 1.3229523l5.500641 -2.6941528q-0.33000183 -0.6735077 -0.78770447 -1.1104736q-0.44366455 -0.4438324 -0.959198 -0.643692q-0.50149536 -0.20674133 -1.0748444 -0.16949463q-0.5593109 0.03036499 -1.1346283 0.31214905z" fill-rule="nonzero"/><path fill="#000000" fill-opacity="0.0" d="m19.971014 202.1904l97.32283 -145.38583l34.92913 23.370079l-97.32283 145.38583z" fill-rule="evenodd"/><path fill="#0000ff" d="m52.887733 192.8719l3.947853 2.641388l-1.3906937 2.0774994l-11.207226 -7.4984436l2.4424057 -3.64859q0.7475014 -1.1166534 1.5548134 -1.7608795q0.8160057 -0.65722656 1.6528664 -0.868103q0.8238716 -0.21955872 1.6600151 -0.036117554q0.8361397 0.18344116 1.6153221 0.70477295q0.8181381 0.5473938 1.3109016 1.2718811q0.49276352 0.7244873 0.6211853 1.6000061q0.115436554 0.8668213 -0.15943527 1.8673096q-0.26617813 0.9874878 -0.9962959 2.0781708l-1.051712 1.571106zm-1.6232948 -1.0861053l1.051712 -1.571106q0.38244247 -0.5713043 0.5264244 -1.0953674q0.14398193 -0.5240631 0.05379486 -0.979187q-0.08149338 -0.4681244 -0.37117767 -0.84994507q-0.29397964 -0.40348816 -0.76148987 -0.7162781q-0.45452118 -0.30412292 -0.9137497 -0.40457153q-0.45053864 -0.1134491 -0.8885002 0.0071258545q-0.4422531 0.09889221 -0.85894775 0.44049072q-0.42967987 0.332901 -0.81212234 0.9042053l-1.051712 1.571106l4.0257683 2.6935272zm10.545055 -3.702774l-7.960636 -5.326233l0.74749756 -1.1166534q0.19991302 -0.29864502 0.39501572 -0.33729553q0.18211746 -0.04736328 0.4679184 0.08746338l1.0522041 0.5348053q-0.45339203 -0.92375183 -0.49950027 -1.781784q-0.046108246 -0.8580475 0.431942 -1.5721741q0.39113617 -0.5843048 0.9246025 -0.7913666l1.2633553 1.2024689q0.1254654 0.12155151 0.13824463 0.24290466q-2.0217896E-4 0.11265564 -0.08712387 0.24249268q-0.07822418 0.116867065 -0.26924133 0.28985596q-0.18231964 0.16001892 -0.39961624 0.48461914q-0.39982605 0.5972748 -0.34901047 1.2516785q0.037826538 0.6456909 0.47424698 1.3700867l4.9477997 3.3104248l-1.2776985 1.9087067zm-1.6390419 -15.0225525q0.5041275 -0.75309753 1.1680756 -1.2112579q0.6596565 -0.47982788 1.4313774 -0.6214905q0.76742935 -0.16333008 1.6078644 0.041793823q0.8361435 0.18344116 1.7062302 0.7655945q0.20777893 0.13902283 0.33324432 0.26055908q0.1341629 0.108566284 0.19029999 0.22132874q0.043144226 0.10406494 0.021263123 0.22102356q-0.026176453 0.09527588 -0.113098145 0.22512817l-3.2942047 4.921051q1.294548 0.73454285 2.2483826 0.5455475q0.95384216 -0.18901062 1.5883484 -1.1368561q0.31290436 -0.46743774 0.4350052 -0.87454224q0.10910797 -0.41578674 0.14439392 -0.74938965q0.0439682 -0.34657288 0.061767578 -0.5978546q0.013496399 -0.27296448 0.13518524 -0.45474243q0.07822418 -0.116867065 0.18231964 -0.16001892q0.09980011 -0.064819336 0.234169 -0.06892395l1.0750122 -0.08912659q0.14632416 0.56788635 0.13660431 1.1441803q-0.014015198 0.55462646 -0.1450119 1.0873718q-0.14398193 0.52404785 -0.38326263 1.0219574q-0.23059082 0.48490906 -0.508728 0.9004059q-0.55628204 0.83099365 -1.307045 1.3626709q-0.75076294 0.531662 -1.6395721 0.70777893q-0.8930969 0.15444946 -1.8851814 -0.076934814q-1.0050659 -0.24006653 -2.0439758 -0.9351654q-0.8181381 -0.5473938 -1.358551 -1.2849579q-0.55339813 -0.7462616 -0.74256516 -1.5872192q-0.20214844 -0.8496399 -0.044460297 -1.7593384q0.16637802 -0.92266846 0.7661133 -1.818573zm1.4026299 0.88204956q-0.5649681 0.8439789 -0.41036606 1.6242218q0.15460205 0.78022766 0.92907715 1.5052032l2.4076424 -3.5966492q-0.36361694 -0.24328613 -0.7578125 -0.35664368q-0.3984909 -0.13500977 -0.78429794 -0.09234619q-0.38581085 0.042663574 -0.7459564 0.27168274q-0.3514557 0.2160492 -0.6382866 0.64453125zm13.769112 -6.0753326q-0.25206757 0.37654114 -0.68092346 0.25880432l-0.87049866 -0.35682678q0.12055206 0.43785095 0.15879059 0.8582306q0.038246155 0.42037964 -0.0015411377 0.84495544q-0.052764893 0.41589355 -0.20523071 0.840271q-0.14377594 0.41140747 -0.43061066 0.8398895q-0.4345932 0.6492157 -1.0723572 1.012085q-0.6290817 0.3498993 -1.4049988 0.4135437q-0.7802048 0.04197693 -1.6811752 -0.24124146q-0.9052658 -0.30488586 -1.879242 -0.95654297q-0.8960571 -0.5995331 -1.4928131 -1.337204q-0.60105133 -0.7593384 -0.8552551 -1.5874023q-0.25419617 -0.82806396 -0.14865875 -1.6598511q0.105537415 -0.83177185 0.63573456 -1.6238251q0.4432907 -0.6622009 0.9769592 -0.98191833q0.5293808 -0.34140015 1.1320801 -0.48335266l-4.1945953 -2.8064728l1.2777023 -1.9087067l11.518898 7.70697l-0.7822647 1.1685944zm-3.1148224 1.6195221q0.39982605 -0.59729004 0.431221 -1.1778717q0.04009247 -0.5935669 -0.16236877 -1.2742157l-3.5712433 -2.3894196q-0.62857056 0.068237305 -1.0451584 0.35350037q-0.4208908 0.26359558 -0.7164078 0.7050476q-0.28683472 0.42848206 -0.35269165 0.89201355q-0.07884216 0.45484924 0.09365845 0.9274597q0.15951538 0.46392822 0.5790634 0.93263245q0.41954803 0.46870422 1.1208115 0.9378967q0.6882782 0.46051025 1.251297 0.68681335q0.5587158 0.20462036 1.0094604 0.20539856q0.4377594 -0.007904053 0.7805176 -0.21096802q0.33847046 -0.22473145 0.5818405 -0.58828735zm-1.3118896 -12.22493l7.96064 5.326233l-1.2863922 1.9216766l-7.96064 -5.326233l1.2863922 -1.9216766zm-2.120346 -1.8322601q0.24673462 0.16508484 0.3979721 0.41667175q0.15122986 0.2515869 0.20706177 0.53334045q0.05153656 0.2600708 -0.0010299683 0.5633087q-0.056854248 0.28155518 -0.23069 0.54122925q-0.16514587 0.2467041 -0.40381622 0.4066162q-0.25164795 0.15122986 -0.5204773 0.21575928q-0.2731247 0.04286194 -0.5634308 -9.765625E-4q-0.28160858 -0.05682373 -0.52835083 -0.22190857q-0.25972748 -0.17378235 -0.41965485 -0.41236877q-0.15122986 -0.2515869 -0.20276642 -0.511673q-0.05582428 -0.28175354 0.0010299683 -0.5633087q0.04386902 -0.29023743 0.2090149 -0.5369415q0.17383575 -0.25968933 0.42549133 -0.41090393q0.2473526 -0.17289734 0.5204773 -0.21575928q0.26883698 -0.06452942 0.55913544 -0.020690918q0.2903061 0.0438385 0.55003357 0.21760559zm8.993904 -4.7843018q0.051734924 0.14741516 0.05582428 0.28175354q0.012786865 0.12135315 -0.09151459 0.27716064q-0.09561157 0.14282227 -0.28212738 0.22483826q-0.18651581 0.08200073 -0.420784 0.20726013q-0.23856354 0.10357666 -0.5119934 0.3154297q-0.2734375 0.21183777 -0.53419495 0.6013794q-0.33898163 0.5063782 -0.4092331 1.0045776q-0.070251465 0.4981842 0.106536865 0.99246216q0.17250061 0.47261047 0.5660782 0.9239502q0.40226746 0.43833923 1.0256195 0.85539246q0.6233444 0.41706848 1.2167282 0.6260834q0.58908844 0.18734741 1.0918808 0.16656494q0.51148224 -0.03378296 0.93666077 -0.2756958q0.41220093 -0.25061035 0.7164154 -0.70506287q0.31290436 -0.46743774 0.3785553 -0.81829834q0.07434082 -0.36386108 0.07485962 -0.6455078q5.1116943E-4 -0.281662 -0.020759583 -0.50268555q-0.021263123 -0.22102356 0.10042572 -0.4028015q0.15644836 -0.23371887 0.41648865 -0.22894287l1.0663147 -0.07614136q0.15501404 0.5549011 0.16268158 1.1052246q-0.0053253174 0.54164124 -0.11893463 1.0484161q-0.11790466 0.48510742 -0.3398056 0.95703125q-0.22190094 0.47192383 -0.50003815 0.88742065q-0.49543762 0.7401123 -1.2027435 1.2068634q-0.7072983 0.4667511 -1.5700302 0.60391235q-0.85404205 0.124176025 -1.7984695 -0.09411621q-0.94872284 -0.23995972 -1.922699 -0.8916321q-0.8830719 -0.5908356 -1.4581528 -1.3327942q-0.5880661 -0.7506561 -0.80319977 -1.6089935q-0.21513367 -0.85832214 -0.04875946 -1.7809906q0.17507172 -0.9356537 0.80088806 -1.8705292q0.59973145 -0.8959198 1.3287201 -1.3669586q0.7376709 -0.4840393 1.6264801 -0.66015625l0.3622818 0.97558594zm9.362175 -0.13807678q-0.68665314 1.0257568 -1.6447906 1.1930847q-0.97112274 0.15864563 -1.9970398 -0.527771l-4.4413376 -2.9715729l-0.53889465 0.80503845q-0.10430145 0.1558075 -0.2864151 0.20315552q-0.18212128 0.047348022 -0.37691498 -0.082977295l-0.7661972 -0.51264954l0.65270996 -1.424469l-1.8992691 -1.8535309q-0.13845825 -0.13023376 -0.13814545 -0.29922485q-0.012680054 -0.1776886 0.10031128 -0.34648132l0.6605835 -0.9868164l2.506363 1.6769409l1.3993912 -2.0904694l1.3635635 0.912323l-1.3993835 2.0904694l4.31147 2.8846893q0.37660217 0.25196838 0.70606995 0.20921326q0.33815765 -0.055740356 0.5467682 -0.3673706q0.11299133 -0.16879272 0.15225983 -0.3117218q0.034973145 -0.16459656 0.056854248 -0.28155518q0.008895874 -0.12564087 0.013397217 -0.21662903q-0.008483887 -0.09968567 0.043663025 -0.17758179q0.05215454 -0.07791138 0.13887024 -0.09509277q0.08241272 -0.038848877 0.2080841 -0.029968262l1.3131638 0.032608032q0.06380463 0.66308594 -0.1194458 1.3300629q-0.17455292 0.65400696 -0.5656891 1.2382965zm-3.73909 -12.166275q0.5041275 -0.7530823 1.1680756 -1.2112427q0.6596527 -0.47984314 1.4313812 -0.6214905q0.76742554 -0.16333008 1.6078644 0.041778564q0.83613586 0.18344116 1.7062225 0.7655945q0.20777893 0.13902283 0.33325195 0.26057434q0.13415527 0.108551025 0.19029236 0.22131348q0.043151855 0.10406494 0.021263123 0.22102356q-0.026176453 0.09529114 -0.113090515 0.22512817l-3.2942123 4.9210663q1.294548 0.73454285 2.2483902 0.5455322q0.95384216 -0.18899536 1.5883408 -1.1368561q0.312912 -0.46743774 0.4350052 -0.87454224q0.1091156 -0.41578674 0.14439392 -0.7493744q0.04397583 -0.34657288 0.061767578 -0.5978699q0.013504028 -0.27296448 0.13518524 -0.45474243q0.07822418 -0.11685181 0.18232727 -0.16000366q0.09980011 -0.064834595 0.23416138 -0.06892395l1.0750122 -0.089141846q0.14632416 0.5679016 0.13660431 1.1441956q-0.014015198 0.5546112 -0.1450119 1.0873566q-0.14398193 0.5240631 -0.38326263 1.0219574q-0.23059082 0.48490906 -0.508728 0.9004059q-0.55628204 0.83099365 -1.307045 1.3626709q-0.75076294 0.53167725 -1.6395721 0.7077942q-0.8930969 0.1544342 -1.8851776 -0.076934814q-1.0050659 -0.24006653 -2.0439758 -0.9351654q-0.8181381 -0.54740906 -1.358551 -1.2849731q-0.55339813 -0.7462616 -0.74256134 -1.5872192q-0.20215607 -0.8496399 -0.04446411 -1.7593231q0.1663742 -0.92266846 0.7661133 -1.8185883zm1.402626 0.8820648q-0.5649643 0.8439789 -0.41036224 1.6242065q0.15460205 0.78022766 0.92907715 1.5052185l2.4076385 -3.5966644q-0.36361694 -0.24328613 -0.7578125 -0.35662842q-0.39848328 -0.13502502 -0.7842941 -0.09236145q-0.38581085 0.042663574 -0.7459564 0.271698q-0.3514557 0.2160492 -0.6382904 0.64453125zm13.769112 -6.075348q-0.25206757 0.37654114 -0.68092346 0.25880432l-0.87049866 -0.35682678q0.12055969 0.4378662 0.15879822 0.85824585q0.038238525 0.42037964 -0.0015411377 0.84495544q-0.052772522 0.41589355 -0.20523834 0.840271q-0.14377594 0.4113922 -0.43060303 0.83987427q-0.4345932 0.6492157 -1.0723648 1.0121002q-0.6290817 0.34988403 -1.4049911 0.4135437q-0.7802124 0.04197693 -1.6811829 -0.24124146q-0.9052658 -0.30488586 -1.879242 -0.9565582q-0.8960571 -0.5995178 -1.4928131 -1.3371887q-0.60105133 -0.7593384 -0.8552475 -1.5874176q-0.2542038 -0.82806396 -0.14866638 -1.6598358q0.105537415 -0.8317871 0.6357422 -1.6238251q0.44328308 -0.6622009 0.9769592 -0.9819336q0.52937317 -0.34140015 1.1320724 -0.4833374l-4.1945953 -2.806488l1.2777023 -1.9086914l11.518898 7.70697l-0.7822647 1.1685791zm-3.1148224 1.6195221q0.39982605 -0.5972748 0.431221 -1.1778564q0.04009247 -0.59358215 -0.16236877 -1.274231l-3.5712433 -2.3894196q-0.6285629 0.068237305 -1.0451584 0.35350037q-0.42088318 0.26359558 -0.7164078 0.70506287q-0.2868271 0.42848206 -0.35269165 0.89201355q-0.07884216 0.45484924 0.09365845 0.9274597q0.15951538 0.46391296 0.5790634 0.9326172q0.41954803 0.46870422 1.1208115 0.937912q0.6882782 0.460495 1.251297 0.6867981q0.55872345 0.20462036 1.0094604 0.20541382q0.4377594 -0.007904053 0.7805176 -0.21096802q0.33847046 -0.2247467 0.5818405 -0.5883026z" fill-rule="nonzero"/><path fill="#0000ff" d="m96.58926 112.392456l0.66230774 0.4431305l-3.8678741 5.778023l4.610161 3.084526l3.3463593 -4.9989624l0.6623001 0.44312286l-3.3463593 4.9989624l5.0387115 3.371254l-0.53889465 0.8050308l-10.973473 -7.3420334l4.406761 -6.5830536zm5.9907913 -2.1800156q0.5562744 -0.8310013 1.2765656 -1.2890625q0.72898865 -0.47104645 1.5439606 -0.56495667q0.82366943 -0.106903076 1.7203445 0.1546402q0.8836899 0.2528534 1.7927399 0.8610687q0.90904236 0.60821533 1.4798203 1.3285065q0.5707855 0.72029114 0.786026 1.5222931q0.22393036 0.78902435 0.066345215 1.6423721q-0.16187286 0.8316803 -0.7181549 1.6626816q-0.5562744 0.83099365 -1.2722778 1.31073q-0.72029114 0.45806122 -1.5439606 0.5649643q-0.8236618 0.10689545 -1.7073517 -0.14595795q-0.8836899 -0.2528534 -1.7927399 -0.8610687q-0.90904236 -0.60821533 -1.4798279 -1.3285065q-0.5837631 -0.728981 -0.7990036 -1.530983q-0.21524048 -0.80200195 -0.066352844 -1.6423721q0.15758514 -0.8533554 0.7138672 -1.6843491zm7.3632584 4.926544q0.46067047 -0.68816376 0.5745926 -1.3639374q0.11391449 -0.6757736 -0.101631165 -1.3087845q-0.20685577 -0.6459961 -0.71720886 -1.2318497q-0.5233383 -0.5945511 -1.2895279 -1.107193q-0.7661972 -0.5126343 -1.5025406 -0.7609024q-0.749321 -0.256958 -1.4255371 -0.20179749q-0.6805115 0.033485413 -1.26194 0.3964615q-0.59441376 0.3542862 -1.0550842 1.04245q-0.46066284 0.6881714 -0.56159973 1.3726349q-0.11391449 0.675766 0.10592651 1.330452q0.21554565 0.63301086 0.7301941 1.2405396q0.5103531 0.5858612 1.2765427 1.0985031q0.7661972 0.5126343 1.5155258 0.7695923q0.74502563 0.2352829 1.4125519 0.1931076q0.6762161 -0.055160522 1.2576447 -0.41812897q0.5814285 -0.36297607 1.0420914 -1.0511475zm4.1306763 -5.1313324l-7.7138977 -5.1611404l0.26075745 -0.389534q0.08691406 -0.12984467 0.17362976 -0.14702606q0.09540558 -0.030166626 0.2252655 0.05672455l1.6797409 1.0298691q-0.6829529 -1.0021439 -0.80687714 -1.9686432q-0.115234375 -0.9794922 0.49319458 -1.8883896q0.23468018 -0.3505783 0.5038223 -0.5840988q0.26483917 -0.25519562 0.5902176 -0.43228912l0.43693542 0.44273376q0.11248016 0.112854004 0.025558472 0.24269867q-0.03476715 0.051940918 -0.12158203 0.12545013q-0.09111023 0.051841736 -0.21698761 0.15561676q-0.12587738 0.103775024 -0.27353668 0.26818085q-0.16064453 0.15571594 -0.32578278 0.40242004q-0.5823593 0.86994934 -0.41937256 1.8061829q0.17167664 0.9232559 0.96292114 1.9602509l5.0127335 3.3538742l-0.4867401 0.72711945zm0.83062744 -15.706406q0.012886047 0.0650177 0.025764465 0.13004303q-9.918213E-5 0.05632782 -0.034866333 0.10826111q-0.05215454 0.07791138 -0.25165558 0.15122986q-0.20378876 0.05164337 -0.47711945 0.20716095q-0.27762604 0.13384247 -0.6075058 0.40192413q-0.32987976 0.26808167 -0.6514816 0.74850464q-0.44328308 0.6622009 -0.54421234 1.3466568q-0.11392212 0.6757736 0.092933655 1.3217697q0.20685577 0.6459961 0.6998291 1.2578201q0.5016556 0.59884644 1.2938232 1.1288605q0.8051529 0.5387039 1.5718613 0.76969147q0.75372314 0.22229767 1.4082642 0.1714325q0.6632309 -0.06384277 1.227272 -0.4008484q0.5597534 -0.35868073 0.95957184 -0.9559555q0.3737564 -0.5583267 0.49595642 -1.021759q0.12219238 -0.4634323 0.13150787 -0.8143997q0.009307861 -0.3509674 -0.02494812 -0.5806885q-0.03425598 -0.22971344 0.02658844 -0.32060242q0.06084442 -0.09088898 0.16923523 -0.11236572l0.3901062 -0.020988464q0.09908295 0.32948303 0.12433624 0.7411804q0.033943176 0.39870453 -0.057884216 0.84485626q-0.08313751 0.43317413 -0.27467346 0.8878174q-0.17853546 0.46333313 -0.46537018 0.8918152q-0.49543762 0.7401123 -1.163681 1.1765976q-0.67253876 0.41481018 -1.4745255 0.5174179q-0.81497955 0.09391022 -1.7073593 -0.14595795q-0.8966751 -0.26154327 -1.8316956 -0.88713837q-0.8830719 -0.5908356 -1.4625397 -1.2981415q-0.58377075 -0.728981 -0.8077011 -1.5179977q-0.22822571 -0.81069183 -0.079338074 -1.651062q0.13591003 -0.84906006 0.69218445 -1.6800537q0.5041275 -0.7530899 1.1419983 -1.1723022q0.6248932 -0.4278946 1.3359756 -0.5913162l0.12934875 0.3685379zm2.1147003 -5.6589203q0.4345932 -0.6492157 1.0334015 -1.0381546q0.59452057 -0.410614 1.2925186 -0.5263977q0.7066879 -0.12876892 1.4907761 0.07624817q0.7798004 0.18334198 1.5979385 0.7307358q0.16882324 0.112953186 0.19898987 0.20833588q0.017173767 0.08669281 -0.052360535 0.19056702l-3.728798 5.5702744l0.15583801 0.104263306q0.87008667 0.5821533 1.6627655 0.830513q0.7883911 0.2266922 1.4862823 0.16723633q0.6936035 -0.08112335 1.2620392 -0.4527893q0.5771332 -0.38464355 1.0117264 -1.0338593q0.39113617 -0.5842972 0.56108856 -1.0909805q0.15696716 -0.5153656 0.1923523 -0.9052887q0.031089783 -0.41159058 0.02720642 -0.6585846q-0.016868591 -0.2556839 0.03527832 -0.33359528q0.0695343 -0.10387421 0.16923523 -0.11236572l0.3901062 -0.020988464q0.09908295 0.32949066 0.09825897 0.7801361q0.007865906 0.43766022 -0.10134125 0.9097824q-0.10921478 0.4721222 -0.3181305 0.9527359q-0.19592285 0.4893036 -0.49144745 0.9307709q-0.5302048 0.7920456 -1.2375107 1.2587967q-0.72029114 0.45806122 -1.5526505 0.5779419q-0.84534454 0.111198425 -1.7637024 -0.1460495q-0.93133545 -0.2659378 -1.9183044 -0.9262924q-0.83112335 -0.55607605 -1.3759308 -1.258995q-0.54481506 -0.7029114 -0.7557602 -1.4832382q-0.20224762 -0.7933197 -0.062049866 -1.6207047q0.1359024 -0.8490524 0.69218445 -1.6800537zm0.55841064 0.37361908q-0.39982605 0.5972824 -0.5396118 1.1993408q-0.13109589 0.5890808 -0.015144348 1.1742554q0.12464142 0.57218933 0.4703598 1.1231003q0.34143066 0.5292282 0.9083252 1.0025253l3.4072037 -5.0898514q-0.6233444 -0.41706085 -1.2385101 -0.5654526q-0.60647583 -0.16138458 -1.1527252 -0.075668335q-0.5375595 0.07273102 -1.0148926 0.39255524q-0.46863556 0.306839 -0.8250046 0.83919525z" fill-rule="nonzero"/><path fill="#000000" fill-opacity="0.0" d="m191.18745 19.769188l102.99214 68.40945l-23.212616 35.02362l-102.99213 -68.40945z" fill-rule="evenodd"/><path fill="#ff0000" d="m204.49594 45.075993l-0.44023132 0.66423035l-5.7918854 -3.847084l-3.0643616 4.623581l5.010956 3.3283768l-0.44023132 0.66423035l-5.010956 -3.328373l-3.349228 5.0533752l-0.80696106 -0.5359993l7.2940674 -11.005421l6.598831 4.3830833zm2.2039642 5.984524q0.8329773 0.5532875 1.2938538 1.2720757q0.47387695 0.72743607 0.5711212 1.5423355q0.11026001 0.82354736 -0.1474762 1.7215385q-0.24911499 0.884964 -0.85336304 1.7966576q-0.60424805 0.91168976 -1.3219147 1.4854317q-0.7176666 0.5737419 -1.5184937 0.7921295q-0.7878113 0.22703171 -1.6414948 0.07266235q-0.8320465 -0.15874863 -1.6650391 -0.71203995q-0.83299255 -0.5532875 -1.315506 -1.2676964q-0.4608612 -0.71878815 -0.5711212 -1.5423355q-0.11026001 -0.82354736 0.13885498 -1.7085114q0.24911499 -0.8849678 0.8533478 -1.7966576q0.60424805 -0.9116936 1.3219147 -1.4854317q0.7263031 -0.5867653 1.5271301 -0.8051529q0.80081177 -0.2183876 1.6414948 -0.07266235q0.85369873 0.15436935 1.6866913 0.70765686zm-4.8943634 7.3847046q0.68981934 0.45819092 1.3658142 0.569561q0.6759949 0.11137009 1.3078918 -0.10667801q0.64489746 -0.20940018 1.2284393 -0.7221756q0.5921631 -0.5257988 1.1014557 -1.2942238q0.5092926 -0.768425 0.75442505 -1.5059738q0.25376892 -0.7505684 0.19584656 -1.4268112q-0.0362854 -0.6806183 -0.40151978 -1.2608566q-0.35661316 -0.59326553 -1.0464325 -1.0514565q-0.68981934 -0.45819473 -1.3744507 -0.55654144q-0.6759949 -0.11137009 -1.3295288 0.11105728q-0.631897 0.2180481 -1.2370758 0.7352028q-0.58354187 0.5127716 -1.0928345 1.2812004q-0.5092926 0.768425 -0.7630615 1.5189934q-0.2321167 0.74619293 -0.18721008 1.4137878q0.057937622 0.6762428 0.423172 1.2564812q0.36524963 0.58024216 1.055069 1.0384331zm5.146515 4.1124535l5.127426 -7.736355l0.39045715 0.25935364q0.13015747 0.08644867 0.14768982 0.17312622q0.030548096 0.095321655 -0.055770874 0.22556686l-1.0225525 1.684269q0.99894714 -0.6870308 1.9645844 -0.8147011q0.97865295 -0.11902237 1.88974 0.48613358q0.35142517 0.23342133 0.585968 0.5017586q0.25619507 0.26395798 0.4345703 0.5887718l-0.44078064 0.43878174q-0.112350464 0.112953186 -0.24250793 0.026500702q-0.05206299 -0.03458023 -0.12590027 -0.12114334q-0.052200317 -0.0909462 -0.15644836 -0.21646881q-0.104263306 -0.12552261 -0.26921082 -0.2726059q-0.1563263 -0.16010284 -0.4036255 -0.3243599q-0.87202454 -0.57922363 -1.807251 -0.41259384q-0.9222107 0.1752739 -1.9555664 0.97076416l-3.331955 5.0273285l-0.7288666 -0.48412704zm15.704102 0.77075577q-0.064941406 0.013134003 -0.12988281 0.02627182q-0.05630493 1.1444092E-4 -0.10836792 -0.03446579q-0.07809448 -0.051872253 -0.15220642 -0.25116348q-0.052474976 -0.20366669 -0.20906067 -0.47649765q-0.13493347 -0.27721024 -0.40428162 -0.60617447q-0.26934814 -0.32896805 -0.7509155 -0.64883804q-0.66378784 -0.4409027 -1.3484192 -0.5392494q-0.6759949 -0.11137009 -1.3209076 0.098033905q-0.64489746 0.20940399 -1.2544708 0.7048874q-0.5965576 0.5041275 -1.1231079 1.298603q-0.53518677 0.80749893 -0.7629242 1.5753593q-0.21910095 0.75483704 -0.16555786 1.4094086q0.06655884 0.66321564 0.40577698 1.2261658q0.3608551 0.55857086 0.9595642 0.9562454q0.55966187 0.37174225 1.0234375 0.4922104q0.46376038 0.12046814 0.81463623 0.12843323q0.35087585 0.007965088 0.58036804 -0.027175903q0.22949219 -0.03514862 0.32060242 0.025367737q0.09111023 0.060516357 0.11302185 0.16886139l0.022598267 0.3901596q-0.32896423 0.100379944 -0.7404022 0.12722015q-0.39842224 0.035484314 -0.8447876 -0.05466461q-0.4333496 -0.08151245 -0.8886261 -0.2713623q-0.4638977 -0.1768341 -0.89341736 -0.46212006q-0.7418823 -0.49277496 -1.1809692 -1.1595764q-0.4174347 -0.67118835 -0.5233154 -1.4730606q-0.09724426 -0.81490326 0.13885498 -1.7085114q0.25775146 -0.897995 0.8792572 -1.8357353q0.5869751 -0.885643 1.2916412 -1.468029q0.7263031 -0.5867653 1.5140991 -0.813797q0.8094635 -0.23141098 1.6501312 -0.08568573q0.84931946 0.13270187 1.682312 0.6859894q0.7548828 0.50141907 1.1765747 1.1379089q0.43032837 0.6234665 0.59661865 1.3341713l-0.36787415 0.13080978zm5.6655884 2.0937576q0.6507721 0.4322586 1.0420532 1.0297852q0.4129181 0.5931549 0.5315399 1.290947q0.13163757 0.7064438 -0.07006836 1.4915924q-0.18005371 0.780777 -0.72387695 1.6012955q-0.112213135 0.16931915 -0.20744324 0.19985962q-0.08659363 0.01751709 -0.19070435 -0.051651l-5.5836334 -3.7087555l-0.10359192 0.15628815q-0.5783386 0.8726196 -0.823349 1.6665268q-0.22335815 0.7895279 -0.16104126 1.487442q0.083969116 0.6935272 0.45783997 1.2607498q0.3868866 0.57585907 1.0376587 1.0081177q0.58569336 0.38903046 1.0928955 0.5570984q0.51582336 0.15505219 0.9057617 0.18894958q0.41156006 0.029525757 0.65844727 0.02469635q0.25552368 -0.017852783 0.33361816 0.03401184q0.10412598 0.06916046 0.11302185 0.16886902l0.022598267 0.3901596q-0.32896423 0.100372314 -0.77944946 0.10128021q-0.43746948 0.009544373 -0.90986633 -0.09789276q-0.47239685 -0.10744476 -0.95370483 -0.31459045q-0.4899292 -0.19412231 -0.93244934 -0.48805237q-0.7939453 -0.5273514 -1.2634583 -1.2331161q-0.4608612 -0.71878815 -0.58413696 -1.5509796q-0.11463928 -0.8452225 0.13871765 -1.7648773q0.2619934 -0.93268585 0.9180298 -1.9225235q0.55244446 -0.83354187 1.2528534 -1.3812408q0.70040894 -0.54769135 1.4795837 -0.76169586q0.79219055 -0.20536804 1.6198578 -0.06828308q0.8493042 0.13269806 1.6822968 0.6859894zm-0.37117004 0.5600357q-0.5987091 -0.39767456 -1.2011414 -0.53520966q-0.58940125 -0.12888336 -1.1738892 -0.010650635q-0.5714569 0.12688446 -1.1207428 0.47483063q-0.52763367 0.34357452 -0.9984131 0.9124832l5.102066 3.3888931q0.41433716 -0.6251602 0.5601349 -1.2411118q0.15881348 -0.60730743 0.070877075 -1.1534119q-0.074920654 -0.53746796 -0.39660645 -1.0137405q-0.3086548 -0.46762848 -0.84228516 -0.8220825z" fill-rule="nonzero"/><path fill="#ff0000" d="m245.54575 72.004456l-1.0962677 1.654068l-4.9849243 -3.311081l-2.0716858 3.125801l3.9176483 2.6021805l-1.0617371 1.6019745l-3.9176483 -2.602188l-2.114853 3.1909256l4.9849243 3.311081l-1.1049042 1.667099l-7.0934296 -4.7116013l7.4494476 -11.239861l7.0934296 4.7116013zm-5.7500763 12.368614l5.2914276 -7.983818l1.119339 0.7434845q0.29934692 0.19883728 0.33880615 0.39385986q0.048080444 0.1819992 -0.085510254 0.46842194l-0.5302582 1.0546188q0.92152405 -0.4570923 1.779068 -0.50650024q0.8575287 -0.04941559 1.5733795 0.42607117q0.5857086 0.38903046 0.79489136 0.92189026l-1.1968079 1.2684021q-0.12098694 0.12597656 -0.24224854 0.13922119q-0.11260986 2.2888184E-4 -0.24276733 -0.08621979q-0.11714172 -0.077812195 -0.29086304 -0.26822662q-0.16070557 -0.18177795 -0.48608398 -0.39790344q-0.5987091 -0.39767456 -1.252655 -0.34433746q-0.64530945 0.04031372 -1.3676453 0.47966003l-3.288803 4.9622116l-1.913269 -1.2708359zm6.348282 4.216652l5.2914276 -7.9838104l1.119339 0.74347687q0.29934692 0.19883728 0.33880615 0.3938675q0.048080444 0.1819992 -0.085510254 0.4684143l-0.53027344 1.0546188q0.9215393 -0.45708466 1.7790833 -0.50650024q0.8575287 -0.04940796 1.5733795 0.42607117q0.5857086 0.38903046 0.7949066 0.92189026l-1.1968384 1.2684021q-0.12097168 0.12597656 -0.24223328 0.13922882q-0.11260986 2.2125244E-4 -0.24276733 -0.08622742q-0.11714172 -0.077804565 -0.29086304 -0.26822662q-0.16070557 -0.18177032 -0.48608398 -0.3978958q-0.59872437 -0.3976822 -1.252655 -0.34433746q-0.64530945 0.04031372 -1.3676453 0.47966003l-3.288803 4.962204l-1.913269 -1.2708359zm15.114441 -1.6279984q0.8980713 0.5965195 1.4370117 1.3671799q0.53897095 0.7706528 0.6926575 1.6418076q0.162323 0.8581238 -0.073638916 1.8080978q-0.21432495 0.9455948 -0.8444519 1.8963623q-0.621521 0.9377365 -1.4171448 1.515976q-0.7739868 0.57385254 -1.6441345 0.78370667q-0.86151123 0.19683075 -1.7802734 -7.6293945E-4q-0.9187622 -0.19760132 -1.8168335 -0.79411316q-0.88505554 -0.58786774 -1.437027 -1.3671722q-0.53897095 -0.7706604 -0.7056732 -1.6504593q-0.14506531 -0.88417053 0.06925964 -1.8297653q0.22294617 -0.95861816 0.8444519 -1.8963623q0.6301422 -0.9507599 1.4171448 -1.5159683q0.7956085 -0.57823944 1.6485138 -0.7620392q0.8745117 -0.18818665 1.7933044 0.009407043q0.9317627 0.2062378 1.8168335 0.7941055zm-4.471405 6.746521q1.0021973 0.66567993 1.9109802 0.31266785q0.93045044 -0.35738373 1.7850342 -1.6467743q0.8545532 -1.2893982 0.8218384 -2.286522q-0.019683838 -0.9884796 -1.0218811 -1.6541595q-1.0021667 -0.6656723 -1.9326172 -0.30828857q-0.93045044 0.35739136 -1.7850037 1.6467819q-0.84594727 1.2763672 -0.8132324 2.2734985q0.032699585 0.9971237 1.0348816 1.662796zm4.5400085 4.966362l5.2914124 -7.983818l1.1193542 0.74347687q0.29934692 0.19884491 0.33880615 0.3938675q0.048065186 0.1819992 -0.085510254 0.4684143l-0.53027344 1.0546188q0.9215393 -0.45708466 1.7790833 -0.50650024q0.8575134 -0.04940796 1.5733643 0.42607117q0.58569336 0.38903046 0.79489136 0.92189026l-1.1968079 1.2684021q-0.1210022 0.12597656 -0.24224854 0.13922882q-0.11260986 2.2888184E-4 -0.24276733 -0.08622742q-0.117126465 -0.077804565 -0.29086304 -0.26822662q-0.16070557 -0.18177032 -0.48608398 -0.3978958q-0.59872437 -0.3976822 -1.252655 -0.34433746q-0.6453247 0.04031372 -1.3676453 0.47966003l-3.2887878 4.962204l-1.913269 -1.2708282z" fill-rule="nonzero"/><path fill="#000000" fill-opacity="0.0" d="m273.34048 61.389423l123.653534 0.12598419l0 42.01575l-123.653534 -0.12598419z" fill-rule="evenodd"/><path fill="#ff0000" d="m330.44595 75.16449l0.859375 8.69751E-4l5.484375 13.208725l-11.84375 -0.012069702l5.5 -13.197525zm-4.203125 12.417595l9.25 0.009422302l-4.375 -10.691963q-0.140625 -0.29701233 -0.25 -0.70337677q-0.046875 0.20307922 -0.109375 0.39051056q-0.0625 0.17181396 -0.125 0.32800293l-4.390625 10.667404zm14.398254 -3.9540787l-3.234375 -4.5345535l0.859375 8.773804E-4q0.125 1.296997E-4 0.1875 0.062690735q0.0625 0.046943665 0.109375 0.12511444l2.71875 3.9402695q0.03125 -0.15621948 0.15625 -0.34358978l2.546875 -3.575531q0.046875 -0.09370422 0.109375 -0.14051819q0.078125 -0.062416077 0.171875 -0.062324524l0.828125 8.468628E-4l-3.25 4.481064l3.375 4.800316l-0.84375 -8.544922E-4q-0.140625 -1.449585E-4 -0.21875 -0.07835388q-0.0625 -0.078186035 -0.109375 -0.15635681l-2.828125 -4.112259q-0.046875 0.18745422 -0.140625 0.32798004l-2.703125 3.7941208q-0.0625 0.093688965 -0.140625 0.15611267q-0.0625 0.062431335 -0.15625 0.062339783l-0.796875 -8.163452E-4l3.359375 -4.7465744z" fill-rule="nonzero"/><path fill="#000000" fill-opacity="0.0" d="m314.64856 41.27085l0 89.196846" fill-rule="evenodd"/><path stroke="#ff0000" stroke-width="1.0" stroke-linejoin="round" stroke-linecap="butt" d="m314.64856 41.27085l0 89.196846" fill-rule="evenodd"/><path fill="#000000" fill-opacity="0.0" d="m311.54593 41.50656l6.2047424 0" fill-rule="evenodd"/><path stroke="#ff0000" stroke-width="1.0" stroke-linejoin="round" stroke-linecap="butt" d="m311.54593 41.50656l6.2047424 0" fill-rule="evenodd"/><path fill="#000000" fill-opacity="0.0" d="m311.54593 130.4672l6.2047424 0" fill-rule="evenodd"/><path stroke="#ff0000" stroke-width="1.0" stroke-linejoin="round" stroke-linecap="butt" d="m311.54593 130.4672l6.2047424 0" fill-rule="evenodd"/><path fill="#000000" fill-opacity="0.0" d="m165.27675 25.956255l132.71599 0" fill-rule="evenodd"/><path stroke="#ff0000" stroke-width="1.0" stroke-linejoin="round" stroke-linecap="butt" d="m165.27675 25.956255l132.71599 0" fill-rule="evenodd"/><path fill="#000000" fill-opacity="0.0" d="m165.62746 29.058872l0 -6.2047253" fill-rule="evenodd"/><path stroke="#ff0000" stroke-width="1.0" stroke-linejoin="round" stroke-linecap="butt" d="m165.62746 29.058872l0 -6.2047253" fill-rule="evenodd"/><path fill="#000000" fill-opacity="0.0" d="m297.99197 29.058872l0 -6.2047253" fill-rule="evenodd"/><path stroke="#ff0000" stroke-width="1.0" stroke-linejoin="round" stroke-linecap="butt" d="m297.99197 29.058872l0 -6.2047253" fill-rule="evenodd"/><path fill="#000000" fill-opacity="0.0" d="m169.28535 -7.9249725l123.65355 0.12598419l0 42.015747l-123.65355 -0.12598419z" fill-rule="evenodd"/><path fill="#ff0000" d="m226.4703 5.8501706l0.859375 8.75473E-4l5.484375 13.208721l-11.84375 -0.012067795l5.5 -13.197529zm-4.203125 12.417599l9.25 0.009426117l-4.375 -10.691963q-0.140625 -0.29701853 -0.25 -0.7033801q-0.046875 0.20307732 -0.109375 0.39051342q-0.0625 0.17181158 -0.125 0.32799816l-4.390625 10.667406zm13.588669 3.7794724q-0.046875 0.12495232 -0.140625 0.20298195q-0.09375 0.09365463 -0.25 0.09349632l-0.640625 -6.542206E-4l1.625 -3.6233463l-3.921875 -8.9415l0.734375 7.4863434E-4q0.140625 1.4305115E-4 0.21875 0.078347206q0.078125 0.06258011 0.125 0.14075279l3.125 7.221937q0.046875 0.14067268 0.09375 0.29697037q0.046875 0.14067268 0.078125 0.2813301q0.046875 -0.14057732 0.09375 -0.28115463q0.0625 -0.15618515 0.109375 -0.29676247l3.09375 -7.215603q0.046875 -0.09370232 0.125 -0.15612221q0.09375 -0.062404633 0.1875 -0.062309265l0.6875 7.009506E-4l-5.34375 12.260186z" fill-rule="nonzero"/></g></svg>